<mxfile host="app.diagrams.net" modified="2023-05-25T13:09:46.690Z" agent="Mozilla/5.0 (Macintosh; Intel Mac OS X 10_15_7) AppleWebKit/537.36 (KHTML, like Gecko) Chrome/113.0.0.0 Safari/537.36" version="21.3.3" etag="ewGJte6UH2chpkFgUbGo" type="github">
  <diagram name="Страница 1" id="IK7YUbl1F22DBOdsAsKB">
    <mxGraphModel>
      <root>
        <mxCell id="0" />
        <mxCell id="1" parent="0" />
      </root>
    </mxGraphModel>
  </diagram>
</mxfile>
